<svg xmlns="http://www.w3.org/2000/svg" viewBox="0 0 1200 630" width="1200" height="630">
  <defs>
    <linearGradient id="bg" x1="0%" y1="0%" x2="100%" y2="100%">
      <stop offset="0%" stop-color="#ff9e2c"/>
      <stop offset="100%" stop-color="#e67e00"/>
    </linearGradient>
  </defs>
  <rect width="1200" height="630" fill="url(#bg)"/>
  <rect x="70" y="70" width="1060" height="490" rx="28" fill="#fff8ef"/>
  <g transform="translate(150,180) scale(4.1)">
    <rect width="64" height="64" rx="14" fill="#ff8c00"/>
    <path d="M14 16 L22 10 L24 22 Z" fill="#ffb04d"/>
    <path d="M50 16 L42 10 L40 22 Z" fill="#ffb04d"/>
    <circle cx="32" cy="34" r="20" fill="#ffa733"/>
    <path d="M32 15 l-3 8 h6 Z" fill="#3a2a12"/>
    <path d="M17 27 q6 3 6 9 l-7 -2 Z" fill="#3a2a12"/>
    <path d="M47 27 q-6 3 -6 9 l7 -2 Z" fill="#3a2a12"/>
    <ellipse cx="32" cy="42" rx="12" ry="9" fill="#fff4e6"/>
    <circle cx="24" cy="33" r="3.4" fill="#1a1a1a"/>
    <circle cx="40" cy="33" r="3.4" fill="#1a1a1a"/>
    <path d="M29 40 h6 l-3 3 Z" fill="#e8642b"/>
    <path d="M32 43 v3 M32 46 q-3 2 -6 0 M32 46 q3 2 6 0" stroke="#3a2a12" stroke-width="1.6" fill="none" stroke-linecap="round"/>
  </g>
  <text x="470" y="285" font-family="'Noto Sans CJK JP','Noto Serif CJK JP',sans-serif" font-size="128" font-weight="900" fill="#1f2937">メカとら</text>
  <text x="474" y="360" font-family="'Noto Sans CJK JP','Noto Serif CJK JP',sans-serif" font-size="40" font-weight="700" fill="#e67e00">mechatora.com</text>
  <text x="474" y="440" font-family="'Noto Sans CJK JP','Noto Serif CJK JP',sans-serif" font-size="38" font-weight="700" fill="#374151">現役人事 × DX × AI × データサイエンス</text>
  <text x="474" y="495" font-family="'Noto Sans CJK JP','Noto Serif CJK JP',sans-serif" font-size="30" font-weight="400" fill="#6b7280">多層的な視点で未来を切り拓く、自己改善メディア</text>
</svg>
